<?xml version="1.0" standalone="no"?><!DOCTYPE svg PUBLIC "-//W3C//DTD SVG 1.1//EN" "http://www.w3.org/Graphics/SVG/1.1/DTD/svg11.dtd"><svg t="1572849656601" class="icon" viewBox="0 0 1024 1024" version="1.1" xmlns="http://www.w3.org/2000/svg" p-id="1531" xmlns:xlink="http://www.w3.org/1999/xlink" width="128" height="128"><defs><style type="text/css"></style></defs><path d="M751.149217 648.381134c-69.341275 0-130.333394-30.840402-142.867872-37.641295-11.199063-4.464685-80.156598-31.04404-135.452995-31.04404-50.103118 0-115.906823 22.873963-137.024793 31.698956-10.611685 4.427846-22.701025 3.264347-32.286334-3.123131-9.547447-6.388501-15.281031-17.105586-15.281031-28.575826L288.236192 133.230374c0-13.976316 8.484232-26.547633 21.396309-31.798217 3.709485-1.514493 91.560322-36.887119 166.769234-36.887119 75.828013 0 157.190065 35.787064 160.622234 37.295418 1.272993 0.550539 2.509147 1.204431 3.709485 1.922792 0.413416 0.2415 50.418296 29.466102 107.563808 29.466102 56.873312 0 105.399515-29.020964 105.882516-29.330002 10.680247-6.388501 23.863501-6.6607 34.717709-0.582261 10.784624 6.116301 17.517979 17.513886 17.517979 29.912263L906.415466 579.695798c0 11.644201-5.910617 22.459524-15.663748 28.811186C888.279411 610.157577 828.418045 648.381134 751.149217 648.381134L751.149217 648.381134zM472.82835 511.010463c73.978898 0 159.836335 35.477003 163.478282 36.986379 1.304715 0.550539 2.573615 1.168616 3.809769 1.883907 0.483001 0.277316 53.509704 29.816073 111.033839 29.816073 36.473703 0 68.444858-12.021801 86.575798-20.539802L837.726038 186.1527c-24.38334 8.379854-55.494918 15.763009-89.427752 15.763009-69.514213 0-128.305201-30.975479-140.604318-37.913495-10.574846-4.464685-75.141374-30.771841-131.291209-30.771841-41.964764 0-91.733261 14.595416-119.480208 24.043602l0 373.993856C389.034922 521.449209 432.682002 511.010463 472.82835 511.010463L472.82835 511.010463zM562.983673 957.473841 185.204607 957.473841 185.204607 98.890264c0-18.959817 15.386432-34.345226 34.345226-34.345226 18.953677 0 34.340109 15.385409 34.340109 34.345226l0 789.890055 309.092707 0c18.99154 0 34.340109 15.356756 34.340109 34.347273S581.975213 957.473841 562.983673 957.473841L562.983673 957.473841zM219.550857 957.473841l-67.62212 0c-18.959817 0-34.345226-15.35471-34.345226-34.345226s15.385409-34.347273 34.345226-34.347273l67.62212 0c18.953677 0 34.340109 15.356756 34.340109 34.347273S238.504534 957.473841 219.550857 957.473841L219.550857 957.473841zM219.550857 957.473841" p-id="1532"></path></svg>