<?xml version="1.0" standalone="no"?><!DOCTYPE svg PUBLIC "-//W3C//DTD SVG 1.1//EN" "http://www.w3.org/Graphics/SVG/1.1/DTD/svg11.dtd"><svg t="1578293726179" class="icon" viewBox="0 0 1896 1024" version="1.1" xmlns="http://www.w3.org/2000/svg" p-id="5455" xmlns:xlink="http://www.w3.org/1999/xlink" width="237" height="128"><defs><style type="text/css"></style></defs><path d="M450.37037 307.2h344.177778v97.659259H450.37037V307.2z m0 140.325926h344.177778v99.555555H450.37037V447.525926z m651.377778 189.62963h353.659259v78.696296h-353.659259v-78.696296z m56.888889-178.251852h237.985185v59.733333h-237.985185v-59.733333z" fill="#EB303E" p-id="5456"></path><path d="M1737.007407 27.496296H158.340741c-56.888889 0-104.296296 46.459259-104.296297 104.296297v760.414814c0 56.888889 46.459259 104.296296 104.296297 104.296297h1580.562963c55.940741 0 104.296296-46.459259 103.348148-104.296297V130.844444c-0.948148-56.888889-47.407407-103.348148-105.244445-103.348148z m-936.77037 742.4v-38.874074h-331.851852v38.874074h-44.562963V269.274074h133.688889c14.222222-25.6 24.651852-50.251852 31.288889-76.8l44.562963 5.688889c-7.585185 25.6-17.066667 48.355556-30.340741 70.162963H843.851852v500.622222h-43.614815v0.948148z m678.874074 1.896297h-42.666667v-26.548149h-340.385185v26.548149H1052.444444V595.437037h427.614815v176.355556h-0.948148z m-372.622222-219.022223V424.77037h312.888889v128h-312.888889z m408.651852-93.866666h-42.666667v-78.696297h-419.081481v82.488889h-42.666667V342.281481h504.414815v116.622223z m17.066666-181.096297h-142.222222v36.02963h-44.562963v-36.02963h-167.822222v36.02963h-44.562963v-36.02963h-139.377778v-38.874074h141.274074v-41.718518h44.562963v41.718518H1346.37037v-41.718518h44.562963v41.718518h141.274074v38.874074z" fill="#EB303E" p-id="5457"></path><path d="M450.37037 588.8h344.177778v107.140741H450.37037V588.8z" fill="#EB303E" p-id="5458"></path></svg>